<?xml version="1.0" standalone="no"?>
<!DOCTYPE svg PUBLIC "-//W3C//DTD SVG 20010904//EN"
 "http://www.w3.org/TR/2001/REC-SVG-20010904/DTD/svg10.dtd">
<svg version="1.0" xmlns="http://www.w3.org/2000/svg"
 width="1963.000000pt" height="1963.000000pt" viewBox="0 0 1963.000000 1963.000000"
 preserveAspectRatio="xMidYMid meet">

<g transform="translate(0.000000,1963.000000) scale(0.100000,-0.100000)"
fill="#000000" stroke="none">
<path d="M14670 10714 c-526 -36 -1025 -193 -1403 -443 -464 -307 -787 -733
-941 -1244 -79 -260 -106 -456 -106 -760 0 -982 387 -1690 1227 -2243 312
-205 549 -324 1254 -628 472 -202 635 -277 809 -367 366 -191 571 -380 658
-606 77 -201 78 -424 2 -622 -95 -247 -348 -452 -675 -546 -159 -46 -248 -57
-475 -62 -391 -9 -659 48 -960 203 -174 90 -291 177 -450 334 -155 152 -234
248 -357 433 -51 76 -92 127 -102 127 -9 0 -31 -10 -50 -21 -19 -12 -195 -114
-390 -227 -568 -328 -901 -521 -974 -564 -79 -46 -78 -38 -10 -161 352 -632
919 -1146 1577 -1427 399 -170 754 -259 1241 -312 161 -17 770 -17 930 0 808
88 1439 352 1889 791 202 198 340 387 456 626 168 347 245 706 243 1145 -2
470 -79 841 -248 1189 -197 406 -503 736 -970 1048 -352 235 -706 413 -1475
743 -636 272 -925 428 -1093 592 -178 174 -255 377 -244 643 6 140 22 210 76
320 118 239 346 390 656 435 216 31 495 -11 689 -104 213 -101 426 -313 587
-585 24 -40 49 -75 55 -78 7 -2 74 36 151 85 76 49 386 248 688 442 303 194
558 360 569 370 18 18 18 20 -19 82 -446 742 -1027 1171 -1800 1327 -223 45
-399 62 -685 65 -151 2 -300 2 -330 0z"/>
<path d="M8837 10608 c-16 -12 -17 -232 -20 -3283 -4 -3517 0 -3287 -52 -3490
-96 -381 -335 -584 -740 -625 -559 -58 -892 130 -1235 699 -47 78 -97 161
-113 186 -25 42 -29 45 -50 34 -60 -32 -1444 -873 -1457 -885 -13 -13 -8 -28
44 -127 402 -761 1022 -1256 1826 -1457 261 -66 464 -91 788 -97 739 -15 1315
129 1796 449 513 341 851 896 975 1599 59 333 55 65 58 3683 3 2664 1 3311 -9
3318 -7 4 -414 8 -904 8 -697 0 -894 -3 -907 -12z"/>
</g>
</svg>
