<?xml version="1.0" standalone="no"?>
<!DOCTYPE svg PUBLIC "-//W3C//DTD SVG 20010904//EN"
 "http://www.w3.org/TR/2001/REC-SVG-20010904/DTD/svg10.dtd">
<svg version="1.0" xmlns="http://www.w3.org/2000/svg"
 width="2299.000000pt" height="2275.000000pt" viewBox="0 0 2299.000000 2275.000000"
 preserveAspectRatio="xMidYMid meet">

<g transform="translate(0.000000,2275.000000) scale(0.100000,-0.100000)"
fill="#000000" stroke="none">
<path d="M5765 21153 c-11 -3 -24 -9 -29 -14 -6 -5 -26 -9 -45 -9 -66 0 -254
-73 -302 -116 -8 -8 -19 -14 -24 -14 -19 0 -121 -99 -178 -173 -75 -99 -132
-210 -176 -348 -14 -45 -15 -415 -1 -424 6 -3 10 -16 10 -28 0 -34 67 -214
111 -297 4 -8 20 -40 36 -70 15 -30 31 -57 34 -60 3 -3 12 -17 20 -32 24 -46
145 -218 237 -335 258 -331 352 -453 352 -457 0 -4 145 -201 177 -241 12 -14
147 -218 153 -230 3 -5 17 -28 31 -50 23 -36 81 -153 114 -230 23 -54 55 -161
55 -186 1 -13 7 -35 15 -49 8 -14 14 -35 15 -46 0 -25 20 -93 62 -214 16 -47
33 -98 38 -115 5 -16 18 -55 30 -85 34 -86 60 -162 70 -198 4 -18 12 -38 18
-45 5 -7 12 -23 15 -37 3 -14 17 -56 32 -95 14 -38 30 -83 34 -100 5 -16 13
-41 19 -55 10 -24 66 -169 99 -255 8 -22 21 -53 28 -70 7 -16 29 -70 50 -120
20 -49 41 -97 46 -105 5 -8 12 -22 15 -30 3 -8 10 -22 15 -30 5 -8 12 -22 15
-30 3 -8 13 -31 23 -50 10 -19 41 -78 68 -130 48 -91 102 -188 123 -220 6 -8
16 -26 23 -40 55 -111 185 -288 278 -380 113 -112 148 -163 156 -231 5 -44 1
-59 -30 -122 -46 -92 -66 -142 -77 -192 -28 -123 -39 -176 -50 -230 -6 -33
-18 -83 -26 -111 -8 -28 -14 -57 -14 -65 0 -8 -9 -45 -21 -84 -11 -38 -28 -95
-36 -125 -8 -30 -20 -71 -26 -90 -21 -69 -62 -255 -78 -355 -5 -33 -16 -90
-24 -126 -8 -37 -15 -86 -15 -110 0 -24 -7 -87 -16 -139 -24 -141 -24 -915 -1
-1045 10 -49 17 -112 17 -140 0 -27 7 -75 15 -105 8 -30 15 -68 15 -84 0 -15
7 -60 16 -100 35 -163 57 -254 70 -298 8 -27 20 -69 28 -95 8 -27 17 -63 21
-80 4 -18 11 -35 16 -38 5 -4 9 -15 9 -26 0 -18 19 -72 54 -154 8 -16 21 -50
31 -75 25 -63 128 -273 170 -345 19 -33 39 -69 44 -80 6 -11 27 -43 48 -72 21
-29 52 -72 68 -95 130 -186 324 -368 456 -429 19 -8 51 -24 71 -34 86 -41 242
-55 345 -30 134 32 214 76 304 165 60 60 84 93 116 160 44 92 62 143 74 205 4
22 12 60 18 85 14 63 30 175 46 310 25 207 36 284 50 340 22 92 43 202 50 264
9 75 13 86 35 86 14 0 69 -101 230 -422 116 -233 219 -435 228 -449 38 -60
102 -155 119 -175 10 -12 25 -31 33 -44 17 -25 146 -186 193 -240 147 -171
531 -555 657 -657 39 -31 74 -61 134 -113 23 -20 93 -76 156 -125 137 -107
156 -124 364 -330 163 -162 211 -204 301 -267 55 -38 164 -92 171 -85 7 7 -86
98 -166 162 -78 62 -197 177 -290 281 -104 114 -185 207 -205 234 -11 15 -28
35 -37 44 -10 10 -18 20 -18 24 0 4 -16 25 -36 47 -19 22 -51 63 -70 90 -19
28 -57 82 -85 120 -28 39 -76 108 -108 155 -32 47 -88 129 -124 183 -37 54
-67 100 -67 102 0 3 -16 27 -35 54 -46 67 -165 261 -165 271 0 5 -3 10 -8 12
-4 2 -56 86 -115 188 -60 102 -113 192 -118 200 -5 8 -12 22 -16 30 -4 8 -27
49 -51 89 -24 41 -48 84 -53 95 -9 21 -14 31 -37 71 -7 11 -26 47 -43 80 -16
33 -39 76 -51 95 -11 19 -41 73 -65 120 -25 47 -48 92 -53 100 -14 25 -107
221 -140 295 -18 39 -41 90 -52 115 -12 25 -26 59 -33 75 -13 29 -42 97 -71
162 -8 18 -22 50 -30 70 -9 21 -23 51 -30 66 -8 16 -14 33 -14 37 0 5 -15 42
-33 82 -41 91 -55 128 -72 198 -7 30 -18 74 -24 97 -17 67 -80 163 -107 163
-6 0 -32 -31 -58 -68 -25 -38 -58 -82 -73 -99 -139 -156 -343 -444 -359 -507
-3 -14 -12 -30 -20 -37 -8 -6 -14 -21 -14 -33 0 -12 -7 -31 -15 -42 -8 -10
-15 -28 -15 -39 0 -11 -7 -33 -15 -48 -8 -15 -17 -45 -21 -65 -4 -20 -11 -42
-16 -49 -5 -6 -13 -33 -18 -60 -15 -80 -32 -155 -45 -208 -16 -59 -31 -162
-45 -300 -6 -55 -14 -118 -20 -140 -5 -22 -12 -76 -15 -120 -3 -44 -12 -125
-20 -180 -8 -55 -19 -146 -24 -203 -5 -57 -15 -110 -22 -118 -13 -16 -59 -18
-106 -5 -88 25 -226 147 -301 265 -32 51 -122 227 -122 240 0 5 -9 27 -19 50
-19 40 -54 120 -71 161 -5 11 -11 29 -14 40 -2 11 -17 52 -31 90 -15 39 -30
84 -34 100 -4 17 -13 40 -19 52 -7 12 -12 30 -12 41 0 11 -6 42 -14 68 -8 27
-24 92 -35 144 -11 52 -25 120 -32 150 -35 163 -79 654 -79 885 0 201 50 766
74 825 3 8 12 49 20 90 29 151 37 186 52 217 7 17 14 44 14 60 0 16 5 34 11
40 6 6 14 26 19 44 10 41 37 117 50 144 6 11 14 34 19 50 5 17 19 55 31 85 12
30 26 69 31 87 5 18 16 45 24 60 8 15 15 37 15 48 0 12 4 25 9 30 6 6 14 28
20 50 5 22 19 72 31 110 54 178 71 339 44 412 -9 26 -21 53 -24 58 -4 6 -11
20 -15 33 -16 52 -93 150 -221 280 -75 75 -140 146 -145 157 -5 11 -34 54 -64
95 -30 41 -59 85 -65 97 -5 12 -22 41 -37 65 -43 67 -43 67 -136 250 -48 95
-87 177 -87 182 0 8 -27 71 -55 126 -7 14 -16 40 -20 57 -3 18 -11 35 -16 38
-5 4 -9 14 -9 23 0 9 -6 29 -14 44 -8 15 -17 42 -21 60 -4 18 -12 39 -18 46
-5 7 -13 29 -18 50 -9 44 -37 130 -49 153 -5 9 -12 34 -16 54 -4 21 -13 50
-20 64 -8 14 -14 35 -14 46 -1 11 -7 31 -15 45 -8 14 -14 34 -15 45 0 11 -6
32 -14 46 -7 14 -16 42 -20 62 -4 20 -13 49 -21 64 -8 15 -15 39 -15 53 0 15
-4 30 -9 35 -6 6 -14 28 -20 50 -14 57 -71 225 -87 257 -8 14 -14 33 -14 42 0
8 -6 30 -14 48 -8 18 -24 58 -36 88 -12 30 -27 69 -34 85 -7 17 -20 46 -28 65
-8 19 -32 69 -52 111 -20 42 -36 81 -36 87 0 7 -4 12 -8 12 -4 0 -20 24 -35
53 -16 28 -46 79 -67 112 -22 33 -43 67 -47 75 -7 15 -44 71 -53 80 -3 3 -23
32 -46 65 -95 140 -110 160 -121 168 -7 4 -13 13 -13 19 0 5 -22 38 -48 72
-26 33 -55 73 -64 87 -9 14 -24 34 -33 43 -9 9 -34 40 -56 69 -21 28 -50 66
-63 82 -139 172 -266 340 -266 350 0 2 -16 27 -35 56 -55 84 -152 288 -166
349 -4 19 -12 53 -18 75 -16 60 -13 121 7 168 10 23 27 61 37 84 17 41 71 93
96 93 6 0 27 10 46 21 31 20 45 21 171 17 129 -4 168 -11 277 -49 17 -6 44
-15 60 -19 37 -11 111 -37 145 -51 14 -6 39 -17 55 -24 78 -34 133 -57 160
-69 68 -29 109 -48 285 -135 102 -51 203 -103 225 -116 22 -12 60 -33 85 -46
25 -13 65 -37 90 -54 25 -17 52 -34 60 -38 59 -28 166 -108 270 -202 104 -96
196 -162 274 -197 30 -14 64 -18 155 -18 73 0 139 -6 176 -16 33 -8 117 -19
187 -24 70 -5 149 -12 175 -15 27 -3 129 -10 228 -15 218 -11 325 -32 510 -97
39 -13 79 -27 90 -30 55 -14 408 -157 455 -185 8 -4 22 -11 30 -14 8 -4 61
-28 118 -55 56 -27 104 -49 106 -49 2 0 28 -16 57 -35 30 -19 61 -35 71 -35 9
0 20 -5 23 -11 4 -5 17 -15 28 -20 12 -5 38 -19 57 -30 19 -12 58 -34 85 -48
48 -26 110 -62 150 -89 11 -7 40 -25 64 -40 128 -79 443 -293 541 -366 30 -23
74 -54 98 -70 23 -16 42 -33 42 -37 0 -5 5 -9 11 -9 10 0 132 -90 154 -114 6
-6 42 -36 80 -65 39 -30 75 -59 80 -65 6 -7 33 -29 60 -51 28 -22 57 -46 66
-55 9 -8 47 -42 85 -75 38 -33 107 -96 154 -140 47 -44 90 -84 96 -90 88 -77
357 -352 504 -514 47 -52 90 -99 96 -105 6 -7 33 -39 60 -71 42 -53 75 -92
109 -129 80 -89 394 -505 509 -676 28 -41 54 -79 59 -85 32 -41 158 -238 207
-324 8 -14 18 -28 21 -31 3 -3 22 -34 43 -70 20 -36 42 -72 47 -80 5 -8 15
-26 22 -40 7 -14 24 -43 38 -65 14 -22 29 -47 32 -55 4 -8 32 -60 63 -115 30
-55 60 -112 67 -127 6 -16 15 -28 19 -28 4 0 8 -5 8 -11 0 -11 50 -123 86
-192 7 -16 14 -34 14 -40 1 -7 9 -30 20 -52 11 -22 19 -47 20 -55 0 -9 4 -20
9 -25 5 -6 14 -26 19 -45 15 -51 41 -120 57 -157 8 -17 15 -37 15 -45 0 -7 7
-22 15 -32 8 -11 15 -27 15 -35 0 -9 14 -45 31 -81 34 -71 43 -92 89 -195 66
-146 68 -151 232 -495 28 -58 71 -148 96 -200 24 -52 66 -140 93 -195 44 -93
103 -220 134 -290 7 -16 30 -66 51 -110 20 -44 43 -95 51 -112 30 -71 43 -100
62 -144 12 -25 21 -50 21 -56 0 -6 7 -16 15 -23 8 -7 15 -19 15 -26 0 -8 23
-62 51 -121 28 -60 58 -124 66 -143 9 -19 20 -42 25 -50 4 -8 11 -22 14 -30 9
-20 52 -111 63 -130 4 -8 13 -24 19 -35 7 -11 14 -26 17 -32 3 -7 7 -19 10
-25 3 -7 21 -40 40 -73 20 -33 42 -73 51 -90 8 -16 22 -42 32 -56 9 -15 33
-53 52 -84 95 -155 161 -246 219 -302 30 -29 58 -53 62 -53 5 0 28 -13 52 -30
25 -16 50 -30 57 -30 7 0 24 -7 38 -15 35 -19 201 -85 216 -85 6 0 24 -7 39
-15 15 -8 44 -17 64 -21 20 -4 48 -13 62 -20 14 -8 36 -14 47 -14 12 0 35 -7
50 -15 16 -8 37 -15 46 -15 10 0 32 -6 50 -14 18 -8 69 -25 113 -39 82 -26
226 -79 282 -103 17 -8 37 -14 45 -14 8 0 19 -5 25 -11 6 -6 26 -14 44 -19 34
-9 107 -33 144 -49 11 -5 47 -18 80 -31 129 -48 313 -145 390 -205 10 -8 23
-15 28 -15 4 0 25 -12 44 -27 20 -16 58 -41 84 -58 57 -36 217 -145 314 -214
39 -28 99 -71 135 -96 36 -25 106 -75 155 -110 125 -90 253 -174 478 -314 160
-99 345 -260 380 -330 37 -74 57 -70 -320 -74 -355 -3 -548 -15 -750 -48 -67
-10 -136 -19 -153 -19 -17 0 -39 -4 -49 -9 -9 -5 -46 -14 -82 -20 -90 -14
-166 -30 -219 -46 -25 -7 -79 -23 -120 -35 -71 -21 -100 -31 -187 -64 -21 -8
-65 -24 -98 -37 -33 -12 -74 -28 -92 -35 -17 -8 -42 -14 -55 -14 -12 -1 -34
-7 -48 -15 -14 -8 -35 -14 -46 -15 -62 -1 -224 -109 -224 -149 0 -9 -5 -22
-11 -28 -9 -9 -4 -24 18 -60 32 -52 51 -92 78 -163 29 -76 59 -133 88 -171 15
-20 27 -39 27 -42 0 -10 66 -103 149 -212 81 -106 350 -385 370 -385 5 0 31
-18 58 -40 71 -59 71 -60 80 -60 4 0 25 -16 46 -35 21 -19 40 -35 43 -35 3 0
42 -28 87 -62 45 -35 90 -67 99 -73 9 -5 76 -50 149 -100 74 -49 140 -93 149
-98 8 -4 42 -23 75 -42 69 -40 291 -149 375 -184 14 -6 34 -16 45 -23 41 -23
50 -28 65 -34 148 -57 631 -308 720 -373 19 -14 43 -30 52 -36 26 -16 97 -65
158 -111 30 -22 80 -58 110 -79 30 -21 62 -44 70 -52 8 -7 78 -61 155 -119 77
-58 170 -133 206 -167 139 -131 210 -187 236 -187 22 0 14 32 -17 74 -17 22
-30 45 -30 52 0 7 -6 25 -14 41 -7 15 -21 45 -30 66 -8 20 -23 54 -33 75 -10
20 -95 116 -190 212 -94 96 -193 202 -218 234 -122 158 -169 209 -370 412
-145 145 -256 247 -391 360 -75 62 -274 214 -280 214 -3 0 -23 13 -43 28 -20
16 -58 42 -84 58 -27 16 -61 37 -75 46 -15 9 -49 29 -77 43 -27 15 -56 32 -64
38 -7 6 -21 16 -31 22 -28 16 -129 78 -159 97 -14 10 -33 21 -41 25 -8 4 -26
14 -40 24 -14 9 -52 34 -85 55 -33 21 -61 42 -63 46 -2 5 -8 8 -13 8 -5 0 -38
22 -73 50 -35 27 -68 50 -72 50 -9 0 -210 204 -229 232 -10 14 -23 36 -56 95
-10 18 -19 42 -19 53 0 17 7 20 54 20 29 0 73 7 96 15 23 8 54 15 67 15 23 0
119 25 203 52 19 6 53 15 75 19 22 4 54 11 70 17 92 31 310 82 356 82 19 1 63
7 99 15 36 8 94 15 130 15 36 0 94 7 130 15 36 8 91 14 123 15 32 0 100 9 150
20 51 12 126 28 167 37 41 8 91 21 110 28 19 7 55 18 80 24 25 7 69 18 98 26
28 8 76 21 105 29 29 7 63 18 75 25 11 6 32 11 45 11 33 0 49 22 49 65 0 29
-12 50 -73 122 -41 48 -85 103 -99 123 -14 20 -40 54 -57 76 -18 21 -62 77
-99 124 -96 123 -180 209 -304 310 -30 25 -57 47 -60 50 -3 3 -30 25 -60 50
-30 25 -57 47 -60 50 -3 4 -39 33 -80 65 -41 32 -77 62 -80 65 -3 4 -59 48
-125 100 -66 51 -125 98 -131 104 -6 6 -22 18 -34 26 -12 8 -28 20 -34 26 -14
14 -237 185 -266 204 -12 8 -30 22 -41 30 -10 8 -41 31 -69 50 -28 19 -80 56
-115 83 -35 26 -67 47 -71 47 -4 0 -17 8 -28 19 -24 22 -214 151 -223 151 -3
0 -22 13 -42 28 -20 16 -58 42 -84 58 -27 16 -61 37 -75 46 -15 10 -38 22 -51
28 -13 6 -44 24 -68 40 -24 17 -50 30 -58 30 -8 0 -16 4 -19 9 -4 5 -27 19
-54 31 -26 12 -60 27 -77 35 -16 8 -61 28 -100 45 -38 17 -92 42 -120 55 -27
13 -68 31 -90 40 -45 19 -90 38 -137 60 -18 8 -44 19 -58 25 -14 5 -32 14 -40
19 -13 8 -92 45 -185 86 -103 45 -122 53 -140 58 -30 9 -106 36 -145 53 -113
50 -139 73 -214 189 -21 33 -46 71 -55 85 -18 27 -126 243 -186 375 -20 44
-50 107 -65 140 -16 33 -31 67 -34 75 -4 8 -19 38 -35 65 -16 28 -30 56 -30
63 -1 7 -8 20 -16 28 -8 9 -15 24 -15 33 0 10 -7 24 -15 31 -8 7 -15 21 -15
31 0 10 -4 21 -10 24 -5 3 -28 45 -51 93 -23 48 -45 94 -50 102 -31 55 -59
114 -59 126 0 8 -4 14 -9 14 -5 0 -13 10 -16 23 -7 21 -98 217 -116 247 -5 8
-12 22 -15 30 -4 8 -22 49 -41 90 -19 41 -41 89 -48 105 -8 17 -34 73 -58 125
-85 181 -117 250 -117 256 0 4 -16 41 -36 83 -68 144 -74 158 -74 165 0 3 -14
37 -31 74 -34 71 -44 95 -79 182 -13 30 -28 69 -35 85 -7 17 -21 50 -30 75
-10 25 -23 59 -30 75 -17 39 -48 118 -70 175 -42 109 -49 127 -66 166 -11 22
-19 43 -19 47 0 4 -14 37 -31 74 -16 38 -37 84 -46 103 -8 19 -19 42 -23 50
-5 8 -21 40 -35 70 -14 30 -31 62 -36 70 -5 8 -12 22 -16 30 -4 8 -21 38 -38
65 -17 28 -35 57 -39 65 -7 16 -21 40 -47 80 -21 32 -141 221 -154 242 -39 63
-206 308 -294 431 -58 81 -120 166 -136 190 -48 66 -182 243 -197 258 -8 8
-33 39 -56 69 -209 278 -614 716 -988 1070 -182 173 -470 416 -749 632 -63 49
-278 208 -281 208 -5 0 -121 85 -158 115 -6 6 -19 15 -28 20 -9 6 -43 28 -74
50 -32 22 -63 42 -69 45 -6 3 -37 23 -68 45 -32 22 -66 45 -75 50 -9 6 -44 28
-77 50 -32 22 -82 53 -110 69 -27 15 -52 31 -55 35 -3 4 -34 25 -70 46 -36 22
-87 54 -115 72 -27 19 -68 43 -90 54 -22 11 -78 44 -125 74 -94 59 -301 165
-322 165 -8 0 -19 5 -26 12 -12 12 -65 33 -117 47 -16 5 -43 16 -60 25 -16 9
-39 16 -50 16 -11 1 -31 7 -45 15 -14 8 -35 14 -47 15 -12 0 -34 5 -50 12 -15
6 -50 17 -78 24 -27 7 -77 19 -110 28 -33 8 -80 20 -105 26 -25 6 -67 18 -95
25 -27 7 -70 18 -95 25 -25 6 -70 15 -101 19 -30 5 -66 14 -78 20 -13 7 -101
16 -209 22 -102 5 -194 11 -203 14 -10 3 -114 10 -231 14 l-213 8 -55 33 c-47
29 -134 92 -150 110 -3 3 -30 25 -60 50 -64 53 -107 89 -129 110 -15 14 -80
59 -123 85 -10 5 -58 35 -108 65 -106 63 -180 106 -265 150 -33 17 -69 36 -80
42 -52 29 -115 60 -180 88 -27 12 -72 32 -100 45 -114 52 -202 88 -260 105
-16 5 -61 20 -100 33 -38 14 -86 28 -105 32 -19 3 -44 10 -55 15 -21 10 -82
22 -195 41 -36 6 -90 17 -121 25 -52 13 -248 18 -294 7z"/>
<path d="M8345 18510 c-27 -5 -69 -9 -92 -9 -23 -1 -68 -11 -100 -22 l-57 -22
26 -21 c14 -12 29 -31 33 -43 3 -13 11 -23 16 -23 5 0 9 -5 9 -12 0 -12 55
-81 123 -155 21 -22 48 -54 60 -70 12 -16 27 -36 34 -44 68 -80 85 -110 168
-294 44 -96 115 -249 124 -265 16 -30 39 -20 102 47 102 109 143 207 154 373
6 95 5 107 -12 130 -11 14 -30 48 -42 75 -12 28 -27 57 -32 65 -5 8 -13 24
-18 35 -12 28 -115 123 -182 167 -30 20 -71 50 -93 67 -35 28 -45 31 -105 30
-36 -1 -88 -5 -116 -9z"/>
<path d="M2810 6685 c-47 -8 -103 -19 -125 -25 -198 -59 -270 -107 -325 -216
l-35 -69 0 -1265 0 -1265 295 0 295 0 3 1178 c2 1269 1 1244 52 1125 23 -55
42 -97 104 -231 20 -42 36 -80 36 -83 0 -2 14 -35 31 -72 17 -37 40 -87 50
-112 11 -25 26 -58 34 -75 20 -43 73 -162 96 -215 11 -25 26 -58 34 -75 20
-43 73 -162 96 -215 11 -25 26 -58 34 -75 67 -145 85 -186 85 -189 0 -4 23
-54 101 -224 16 -34 29 -64 29 -66 0 -4 22 -53 101 -224 16 -34 29 -64 29 -67
0 -2 18 -41 39 -85 114 -238 266 -330 546 -330 242 0 397 75 492 237 36 62
103 197 103 208 0 3 13 33 29 67 80 173 101 220 101 224 0 5 11 28 96 212 19
40 34 75 34 78 0 5 10 27 96 212 19 40 34 75 34 78 0 2 14 35 31 72 17 37 39
85 49 107 10 22 34 75 54 118 20 44 36 81 36 83 0 2 16 39 36 81 19 43 39 87
44 98 5 11 25 55 44 98 20 42 36 79 36 81 0 2 16 39 36 83 20 43 49 105 64
138 15 33 30 70 34 83 4 13 15 22 27 22 19 0 19 -22 21 -1172 l3 -1173 295 0
295 0 3 1225 c2 1102 1 1232 -14 1290 -21 86 -44 127 -96 176 -55 52 -78 65
-158 93 -113 38 -121 40 -248 58 -117 16 -129 16 -223 0 -55 -10 -108 -22
-117 -26 -9 -5 -37 -19 -62 -31 -132 -64 -215 -166 -304 -370 -16 -36 -42 -94
-58 -130 -16 -36 -33 -74 -38 -85 -5 -11 -25 -55 -44 -98 -20 -42 -36 -79 -36
-81 0 -2 -16 -39 -36 -83 -34 -74 -65 -143 -84 -188 -5 -11 -23 -51 -41 -90
-43 -96 -79 -176 -89 -200 -5 -11 -25 -55 -44 -98 -20 -42 -36 -79 -36 -81 0
-2 -16 -39 -36 -83 -53 -117 -61 -134 -83 -183 -10 -25 -33 -76 -51 -115 -17
-38 -35 -79 -40 -90 -5 -11 -24 -54 -43 -95 -18 -41 -51 -117 -73 -167 -42
-101 -60 -114 -83 -60 -8 17 -22 52 -33 77 -32 74 -35 83 -56 130 -11 25 -30
68 -42 95 -11 28 -25 59 -30 70 -33 74 -50 115 -50 119 0 3 -16 41 -36 83 -50
110 -49 107 -94 217 -23 54 -46 106 -50 115 -5 9 -63 144 -130 301 -67 157
-125 292 -130 301 -4 9 -27 61 -50 115 -22 54 -45 108 -50 119 -5 11 -18 43
-30 70 -12 28 -27 64 -35 80 -8 17 -30 65 -49 108 -95 210 -237 321 -457 356
-81 13 -130 12 -239 -4z"/>
<path d="M11138 6633 c7 -3 16 -2 19 1 4 3 -2 6 -13 5 -11 0 -14 -3 -6 -6z"/>
<path d="M14293 6633 c9 -2 23 -2 30 0 6 3 -1 5 -18 5 -16 0 -22 -2 -12 -5z"/>
<path d="M15563 6633 c9 -2 23 -2 30 0 6 3 -1 5 -18 5 -16 0 -22 -2 -12 -5z"/>
<path d="M13074 6445 c0 -104 2 -146 3 -92 2 54 2 139 0 190 -1 51 -3 7 -3
-98z"/>
<path d="M14738 6233 c138 -2 366 -2 505 0 138 1 25 2 -253 2 -278 0 -391 -1
-252 -2z"/>
<path d="M10372 6030 c0 -19 2 -27 5 -17 2 9 2 25 0 35 -3 9 -5 1 -5 -18z"/>
<path d="M13442 6000 c0 -19 2 -27 5 -17 2 9 2 25 0 35 -3 9 -5 1 -5 -18z"/>
<path d="M16442 6000 c0 -19 2 -27 5 -17 2 9 2 25 0 35 -3 9 -5 1 -5 -18z"/>
<path d="M9297 5793 c-4 -3 -7 -359 -7 -790 l0 -784 -722 4 c-708 4 -724 4
-781 25 -70 26 -109 52 -139 95 l-23 32 -5 705 -5 705 -295 3 -295 2 0 -718 0
-718 37 -74 c42 -84 87 -137 168 -197 57 -43 209 -123 232 -123 8 0 18 -4 24
-9 11 -12 71 -27 179 -47 44 -9 94 -20 110 -26 20 -7 275 -13 773 -16 l742 -4
0 -134 c0 -115 -3 -141 -20 -174 -26 -50 -72 -87 -151 -119 l-64 -26 -1010 -5
-1010 -5 -3 -197 -2 -198 1055 0 c618 0 1055 4 1055 9 0 5 19 11 43 14 99 11
305 78 382 125 165 100 240 178 297 313 l23 54 3 1143 2 1142 -293 0 c-162 0
-297 -3 -300 -7z"/>
<path d="M10372 5610 c0 -14 2 -19 5 -12 2 6 2 18 0 25 -3 6 -5 1 -5 -13z"/>
<path d="M11488 5433 c111 -2 293 -2 405 0 111 1 20 2 -203 2 -223 0 -314 -1
-202 -2z"/>
<path d="M11273 5073 c9 -2 23 -2 30 0 6 3 -1 5 -18 5 -16 0 -22 -2 -12 -5z"/>
<path d="M13442 4490 c0 -19 2 -27 5 -17 2 9 2 25 0 35 -3 9 -5 1 -5 -18z"/>
<path d="M16443 4485 c0 -22 2 -30 4 -17 2 12 2 30 0 40 -3 9 -5 -1 -4 -23z"/>
<path d="M10798 4243 c232 -2 612 -2 845 0 232 1 42 2 -423 2 -465 0 -655 -1
-422 -2z"/>
<path d="M18248 4243 c226 -2 598 -2 825 0 226 1 41 2 -413 2 -454 0 -639 -1
-412 -2z"/>
<path d="M15478 3863 c7 -3 16 -2 19 1 4 3 -2 6 -13 5 -11 0 -14 -3 -6 -6z"/>
<path d="M12158 3843 c6 -2 18 -2 25 0 6 3 1 5 -13 5 -14 0 -19 -2 -12 -5z"/>
<path d="M15218 3843 c7 -3 16 -2 19 1 4 3 -2 6 -13 5 -11 0 -14 -3 -6 -6z"/>
<path d="M17843 3843 c9 -2 25 -2 35 0 9 3 1 5 -18 5 -19 0 -27 -2 -17 -5z"/>
<path d="M14308 3833 c12 -2 30 -2 40 0 9 3 -1 5 -23 4 -22 0 -30 -2 -17 -4z"/>
<path d="M14528 3833 c89 -2 235 -2 325 0 89 1 16 3 -163 3 -179 0 -252 -2
-162 -3z"/>
<path d="M15028 3833 c6 -2 18 -2 25 0 6 3 1 5 -13 5 -14 0 -19 -2 -12 -5z"/>
<path d="M16162 3423 c92 -2 245 -2 340 0 95 1 20 3 -167 3 -187 0 -265 -2
-173 -3z"/>
</g>
</svg>
