<?xml version="1.0" standalone="no"?>
<!DOCTYPE svg PUBLIC "-//W3C//DTD SVG 20010904//EN"
 "http://www.w3.org/TR/2001/REC-SVG-20010904/DTD/svg10.dtd">
<svg version="1.0" xmlns="http://www.w3.org/2000/svg"
 width="1963.000000pt" height="1963.000000pt" viewBox="0 0 1963.000000 1963.000000"
 preserveAspectRatio="xMidYMid meet">

<g transform="translate(0.000000,1963.000000) scale(0.100000,-0.100000)"
fill="#000000" stroke="none">
<path d="M3710 18693 c-149 -15 -325 -35 -330 -38 -4 -2 -38 -9 -76 -15 -38
-6 -82 -15 -99 -20 -16 -5 -82 -23 -145 -40 -334 -92 -622 -225 -925 -426
-211 -141 -283 -201 -485 -403 -199 -199 -244 -254 -398 -481 -141 -208 -198
-315 -317 -590 -66 -154 -142 -419 -184 -645 -53 -282 -51 -43 -51 -6223 0
-6086 -1 -5951 45 -6187 24 -123 106 -455 120 -489 7 -17 28 -71 46 -121 38
-105 148 -346 189 -415 185 -312 317 -488 523 -699 136 -138 407 -371 433
-371 4 0 19 -11 33 -24 57 -52 371 -231 516 -294 176 -76 444 -167 585 -197
133 -29 159 -34 298 -57 l137 -22 6095 -4 c4262 -2 6139 0 6240 8 420 31 792
132 1175 320 169 83 257 133 383 219 29 20 61 41 70 46 9 6 40 28 67 50 28 22
77 61 110 85 92 69 391 373 481 490 192 248 327 476 444 751 145 339 217 656
250 1093 14 176 14 11466 0 11642 -13 170 -28 300 -46 404 -89 493 -279 940
-569 1333 -485 660 -1177 1105 -1961 1262 -319 64 262 59 -6489 60 -3371 1
-6146 0 -6165 -2z m4090 -4541 c476 -48 825 -134 1225 -303 71 -30 92 -41 200
-100 83 -44 93 -50 150 -86 552 -350 907 -836 1073 -1473 39 -150 82 -400 82
-480 0 -27 5 -84 11 -127 12 -84 1 -314 -27 -553 -30 -263 -82 -470 -176 -710
-36 -91 -119 -258 -156 -314 -15 -23 -32 -48 -37 -57 -30 -50 -69 -104 -76
-107 -5 -2 -9 -8 -9 -14 0 -30 -280 -331 -394 -423 -27 -22 -54 -45 -60 -50
-35 -34 -262 -190 -326 -225 -115 -64 -361 -180 -380 -180 -5 0 -18 -5 -28
-10 -45 -27 -439 -138 -562 -159 -36 -6 -90 -16 -120 -21 -145 -27 -346 -50
-560 -66 -193 -14 -306 -16 -635 -10 -220 4 -429 9 -464 11 -39 3 -69 1 -78
-6 -11 -10 -13 -223 -13 -1249 0 -1204 -1 -1238 -19 -1261 l-19 -24 -770 -3
c-747 -2 -770 -2 -793 17 l-24 19 -2 3939 c-2 3131 0 3943 10 3963 8 15 24 27
45 31 17 3 290 12 605 19 314 7 660 16 767 20 286 11 1423 5 1560 -8z m6435
-1883 c240 -14 549 -53 690 -85 39 -9 81 -18 95 -21 45 -9 164 -44 230 -68
105 -38 154 -62 180 -90 l25 -27 3 -672 c3 -770 9 -715 -83 -719 -40 -1 -65 6
-125 35 -126 62 -230 105 -335 138 -55 17 -118 37 -140 45 -87 29 -302 72
-520 104 -253 37 -345 43 -586 38 -217 -5 -242 -7 -350 -34 -223 -57 -266 -91
-353 -282 -6 -13 -11 -56 -11 -95 0 -116 61 -218 196 -328 25 -21 50 -38 54
-38 5 0 22 -11 39 -24 27 -20 398 -206 412 -206 3 0 31 -12 62 -26 31 -14 134
-54 227 -89 94 -34 201 -77 239 -94 38 -17 73 -31 79 -31 19 0 416 -200 568
-287 86 -49 203 -122 260 -163 128 -91 326 -287 399 -395 30 -44 57 -82 60
-85 4 -3 29 -50 57 -105 67 -135 134 -342 148 -461 3 -27 8 -67 10 -89 22
-179 8 -443 -32 -615 -44 -192 -135 -410 -237 -569 -58 -89 -47 -76 -149 -191
-159 -179 -337 -323 -499 -405 -29 -14 -60 -30 -68 -35 -22 -14 -169 -79 -215
-96 -398 -147 -690 -197 -1224 -211 -333 -8 -691 18 -1026 76 -305 53 -743
189 -867 269 -71 46 -68 13 -68 765 0 371 3 688 6 705 10 48 35 49 112 6 107
-61 311 -160 387 -189 39 -14 79 -30 90 -35 55 -25 318 -104 385 -116 14 -3
39 -9 55 -14 100 -29 246 -57 460 -86 190 -27 660 -27 795 0 255 49 375 116
445 248 23 44 29 69 33 143 4 80 1 96 -21 145 -26 57 -113 156 -182 207 -49
36 -144 91 -205 120 -194 91 -266 123 -275 123 -3 0 -25 8 -48 19 -23 10 -91
37 -152 60 -204 78 -336 133 -455 189 -41 19 -88 41 -105 49 -16 7 -37 17 -45
22 -8 4 -26 14 -40 21 -14 8 -54 29 -90 48 -366 195 -638 414 -818 657 -164
222 -244 409 -297 697 -27 144 -20 454 14 628 30 155 142 466 173 478 4 2 8 9
8 15 0 18 78 144 140 226 117 156 328 345 500 449 170 102 373 191 570 250
357 107 800 138 1415 101z"/>
<path d="M6485 12692 c-11 -2 -23 -9 -27 -16 -4 -6 -8 -583 -8 -1282 0 -1163
1 -1273 16 -1285 13 -11 99 -14 413 -17 516 -5 690 11 1031 99 247 63 416 143
580 274 201 161 305 319 372 562 l32 118 1 265 c0 225 -3 276 -18 340 -133
537 -525 840 -1206 931 -130 17 -201 19 -656 18 -280 -1 -519 -4 -530 -7z"/>
</g>
</svg>
