<?xml version="1.0" encoding="UTF-8"?>
<!-- Generator: visioncortex VTracer 0.6.3 -->
<svg version="1.1" xmlns="http://www.w3.org/2000/svg" width="1280" height="725">
<path d="M0 0 C422.4 0 844.8 0 1280 0 C1280 239.25 1280 478.5 1280 725 C857.6 725 435.2 725 0 725 C0 485.75 0 246.5 0 0 Z " fill="#001D37" transform="translate(0,0)"/>
<path d="M0 0 C422.4 0 844.8 0 1280 0 C1280 239.25 1280 478.5 1280 725 C857.6 725 435.2 725 0 725 C0 485.75 0 246.5 0 0 Z M295 57 C274.27 81.95 266.67 112.77 266.73 144.54 C266.73 146.5 266.72 148.47 266.72 150.43 C266.71 155.8 266.71 161.17 266.71 166.54 C266.71 172.35 266.7 178.15 266.69 183.95 C266.67 195.31 266.67 206.67 266.67 218.03 C266.66 227.27 266.66 236.51 266.65 245.75 C266.65 248.41 266.65 251.07 266.65 253.74 C266.65 254.4 266.65 255.06 266.65 255.75 C266.64 274.37 266.63 292.99 266.63 311.61 C266.63 312.31 266.63 313.01 266.63 313.74 C266.63 317.29 266.63 320.84 266.63 324.4 C266.63 325.1 266.63 325.81 266.63 326.54 C266.63 327.97 266.63 329.39 266.63 330.82 C266.63 353.02 266.62 375.21 266.59 397.41 C266.56 422.38 266.54 447.35 266.54 472.32 C266.54 485.53 266.54 498.74 266.52 511.94 C266.5 523.19 266.49 534.44 266.51 545.69 C266.51 551.42 266.51 557.15 266.5 562.88 C266.48 568.14 266.48 573.4 266.5 578.66 C266.5 580.55 266.5 582.44 266.49 584.33 C266.29 619.9 278.41 651.22 303 677 C303.51 677.54 304.03 678.09 304.56 678.64 C308.65 682.87 312.94 686.45 317.75 689.81 C318.48 690.32 319.21 690.83 319.96 691.36 C341.31 705.96 365.51 715.19 391.63 715.13 C392.88 715.13 392.88 715.13 394.16 715.14 C396.96 715.14 399.75 715.14 402.55 715.14 C404.58 715.14 406.6 715.15 408.63 715.15 C414.2 715.16 419.76 715.16 425.33 715.16 C431.33 715.16 437.34 715.17 443.34 715.18 C457.16 715.19 470.98 715.2 484.79 715.2 C491.62 715.2 498.46 715.21 505.29 715.21 C528.7 715.22 552.1 715.23 575.51 715.24 C576.98 715.24 578.45 715.24 579.92 715.24 C581.39 715.24 582.86 715.24 584.33 715.24 C587.29 715.24 590.24 715.24 593.19 715.24 C594.29 715.24 594.29 715.24 595.41 715.24 C619.14 715.24 642.86 715.26 666.59 715.28 C691.69 715.31 716.8 715.32 741.9 715.32 C744.66 715.32 747.42 715.32 750.18 715.32 C750.86 715.32 751.54 715.32 752.24 715.32 C763.15 715.32 774.05 715.34 784.96 715.35 C795.93 715.36 806.91 715.37 817.88 715.36 C823.82 715.36 829.76 715.36 835.7 715.37 C841.14 715.38 846.59 715.38 852.04 715.37 C854 715.37 855.96 715.37 857.92 715.38 C896.15 715.54 927.45 703.52 955 677 C955.64 676.42 956.29 675.84 956.95 675.24 C977.02 656.62 987.68 628.58 991 602 C991.09 599.23 991.14 596.49 991.13 593.72 C991.13 592.91 991.14 592.1 991.14 591.27 C991.14 588.55 991.14 585.84 991.14 583.13 C991.14 581.16 991.15 579.19 991.15 577.23 C991.16 571.83 991.16 566.43 991.16 561.03 C991.16 555.2 991.17 549.37 991.18 543.55 C991.19 530.81 991.2 518.07 991.2 505.33 C991.2 497.37 991.21 489.41 991.21 481.45 C991.22 459.42 991.23 437.38 991.24 415.34 C991.24 413.91 991.24 412.49 991.24 411.06 C991.24 409.63 991.24 408.21 991.24 406.78 C991.24 403.91 991.24 401.05 991.24 398.18 C991.24 397.47 991.24 396.76 991.24 396.03 C991.24 373.01 991.26 349.99 991.28 326.97 C991.31 302.62 991.32 278.27 991.32 253.91 C991.32 240.64 991.33 227.38 991.35 214.11 C991.36 202.81 991.37 191.5 991.36 180.2 C991.36 174.44 991.36 168.68 991.37 162.92 C991.38 157.63 991.38 152.35 991.37 147.07 C991.37 145.16 991.37 143.26 991.38 141.36 C991.52 109.92 982.49 81.88 963 57 C962.23 55.99 961.45 54.98 960.65 53.95 C956.2 48.31 951.61 43.47 946 39 C945.08 38.23 944.16 37.46 943.21 36.67 C924.83 21.62 902.43 13.18 879 10 C878.38 9.91 877.76 9.83 877.12 9.74 C868.03 8.64 858.89 8.85 849.75 8.86 C847.78 8.86 845.82 8.85 843.85 8.85 C838.45 8.84 833.05 8.84 827.65 8.84 C821.82 8.84 816 8.83 810.17 8.82 C797.43 8.81 784.69 8.8 771.95 8.8 C763.99 8.8 756.03 8.79 748.07 8.79 C726.02 8.78 703.96 8.77 681.91 8.76 C680.48 8.76 679.06 8.76 677.63 8.76 C676.2 8.76 674.77 8.76 673.34 8.76 C670.48 8.76 667.61 8.76 664.75 8.76 C663.68 8.76 663.68 8.76 662.6 8.76 C639.58 8.76 616.56 8.74 593.54 8.72 C569.17 8.69 544.8 8.68 520.44 8.68 C507.17 8.68 493.89 8.67 480.62 8.65 C469.32 8.64 458.02 8.63 446.71 8.64 C440.95 8.64 435.19 8.64 429.43 8.63 C424.14 8.62 418.86 8.62 413.57 8.63 C411.67 8.63 409.77 8.63 407.87 8.62 C363.16 8.43 324.97 23.31 295 57 Z " fill="#FAFDFF" transform="translate(0,0)"/>
<path d="M0 0 C2.97 -0.01 5.93 -0.03 8.9 -0.05 C45.9 -0.34 86.29 3.08 115.06 29.23 C116.01 30.08 116.96 30.93 117.95 31.81 C136.1 48.57 147.3 72.73 148.96 97.42 C149.01 98.81 149.01 98.81 149.06 100.23 C149.1 101.18 149.1 101.18 149.14 102.16 C150.27 133.63 142.73 160.46 122.13 184.48 C97.09 211.14 60.1 217.79 25.18 219.17 C16.52 219.43 7.84 219.34 -0.83 219.25 C-1.56 219.24 -2.3 219.23 -3.05 219.23 C-5.06 219.21 -7.06 219.18 -9.06 219.15 C-11.84 218.9 -11.84 218.9 -12.94 220.23 C-13.06 223.27 -13.12 226.29 -13.13 229.32 C-13.14 230.28 -13.15 231.23 -13.16 232.22 C-13.17 234.3 -13.19 236.38 -13.2 238.46 C-13.22 241.74 -13.25 245.03 -13.28 248.31 C-13.34 255.28 -13.39 262.26 -13.44 269.23 C-13.5 277.31 -13.56 285.38 -13.63 293.46 C-13.66 296.71 -13.68 299.96 -13.7 303.2 C-13.72 305.18 -13.74 307.16 -13.75 309.14 C-13.76 310.05 -13.76 310.96 -13.77 311.9 C-13.83 318.12 -13.83 318.12 -14.94 319.23 C-16.86 319.34 -18.78 319.38 -20.7 319.39 C-21.93 319.4 -23.16 319.41 -24.43 319.42 C-25.79 319.43 -27.14 319.43 -28.5 319.43 C-29.88 319.44 -31.26 319.45 -32.64 319.45 C-35.54 319.46 -38.44 319.47 -41.34 319.47 C-45.06 319.48 -48.78 319.5 -52.5 319.53 C-55.35 319.55 -58.21 319.55 -61.06 319.55 C-62.43 319.56 -63.8 319.57 -65.17 319.58 C-67.09 319.6 -69.01 319.59 -70.93 319.59 C-72.02 319.59 -73.11 319.59 -74.24 319.6 C-76.94 319.23 -76.94 319.23 -78.59 318.03 C-80.42 315.6 -80.32 314.06 -80.32 311.03 C-80.32 309.95 -80.33 308.87 -80.34 307.75 C-80.33 306.55 -80.32 305.36 -80.32 304.13 C-80.32 302.86 -80.33 301.6 -80.33 300.29 C-80.34 296.77 -80.33 293.25 -80.32 289.73 C-80.31 285.94 -80.32 282.15 -80.33 278.35 C-80.34 270.92 -80.33 263.48 -80.32 256.05 C-80.3 247.4 -80.31 238.74 -80.31 230.09 C-80.31 214.65 -80.3 199.22 -80.28 183.78 C-80.26 168.79 -80.25 153.8 -80.26 138.81 C-80.26 122.5 -80.26 106.2 -80.25 89.89 C-80.25 88.15 -80.25 86.41 -80.25 84.67 C-80.25 83.81 -80.25 82.96 -80.25 82.08 C-80.24 76.04 -80.24 70.01 -80.25 63.97 C-80.25 56.62 -80.24 49.27 -80.23 41.91 C-80.22 38.16 -80.22 34.41 -80.22 30.65 C-80.23 26.59 -80.22 22.53 -80.2 18.46 C-80.21 16.67 -80.21 16.67 -80.22 14.85 C-80.21 13.76 -80.2 12.68 -80.2 11.56 C-80.2 10.62 -80.2 9.68 -80.19 8.71 C-79.93 6.07 -79.37 4.46 -77.94 2.23 C-74.88 0.7 -71.66 0.99 -68.29 0.91 C-67.48 0.89 -66.67 0.87 -65.84 0.85 C-63.08 0.78 -60.32 0.72 -57.57 0.67 C-56.61 0.65 -55.65 0.63 -54.66 0.61 C-36.45 0.24 -18.22 0.07 0 0 Z " fill="#2BA7FB" transform="translate(508.94293212890625,188.76882934570313)"/>
<path d="M0 0 C0.82 -0.01 1.64 -0.01 2.48 -0.02 C5.12 -0.04 7.76 -0.05 10.4 -0.05 C11.75 -0.05 11.75 -0.05 13.13 -0.05 C30.18 -0.03 46.39 1.06 62.9 5.58 C63.59 5.76 64.27 5.95 64.98 6.14 C69.71 7.58 72.43 9.2 75.34 13.2 C76.04 17.38 75.92 21.5 75.83 25.72 C75.82 27.54 75.82 27.54 75.81 29.4 C75.78 33.27 75.72 37.14 75.65 41.02 C75.63 43.64 75.6 46.27 75.58 48.9 C75.53 55.33 75.45 61.77 75.34 68.2 C70.06 68.32 66.85 67.84 62.09 65.52 C56.45 62.91 50.79 61.03 44.78 59.45 C44.04 59.26 43.29 59.06 42.53 58.85 C31.16 55.97 19.93 54.84 8.21 54.83 C6.44 54.79 6.44 54.79 4.62 54.75 C-3.99 54.73 -13.26 55.55 -19.79 61.83 C-22.58 65.36 -22.81 67.53 -22.99 72.04 C-22.34 76.32 -20.28 78.7 -16.97 81.38 C-7.31 87.61 2.67 91.98 13.34 96.2 C42.63 107.87 70.81 119.8 84.66 150.1 C90.27 165.73 90.11 187.99 83.34 203.2 C82.87 204.29 82.39 205.38 81.9 206.5 C72.85 225.05 56.51 237.37 37.34 244.2 C21.2 249.6 5.14 250.59 -11.72 250.52 C-12.63 250.51 -13.54 250.51 -14.47 250.51 C-27.72 250.47 -40.69 250.16 -53.66 247.2 C-54.49 247.02 -55.32 246.83 -56.18 246.63 C-75.33 242.18 -75.33 242.18 -82.66 238.2 C-83.51 237.77 -84.37 237.35 -85.25 236.9 C-89.19 232.49 -88.33 227.6 -88.25 221.89 C-88.25 220.68 -88.25 219.47 -88.25 218.23 C-88.25 215.67 -88.23 213.12 -88.2 210.57 C-88.16 206.65 -88.16 202.74 -88.17 198.82 C-88.16 196.34 -88.14 193.87 -88.13 191.39 C-88.13 190.21 -88.13 189.04 -88.13 187.83 C-88.11 186.74 -88.1 185.65 -88.08 184.53 C-88.07 183.09 -88.07 183.09 -88.05 181.62 C-87.6 178.82 -86.85 177.94 -84.66 176.2 C-81.66 177.35 -78.74 178.61 -75.83 179.97 C-65.64 184.71 -55.57 188.51 -44.66 191.2 C-43.44 191.52 -42.23 191.84 -40.98 192.17 C-30.96 194.39 -20.94 194.52 -10.72 194.58 C-9.65 194.59 -9.65 194.59 -8.55 194.6 C1.03 194.68 10.22 194.65 18.4 189.14 C21.21 186.33 21.58 184.46 21.78 180.58 C21.7 175.67 20.61 172.79 17.34 169.13 C10.45 162.49 0.97 159.2 -7.79 155.77 C-10.19 154.8 -12.59 153.84 -15 152.87 C-16.15 152.41 -17.3 151.95 -18.48 151.48 C-43.43 141.48 -69.88 128.01 -81.91 102.57 C-88.91 85.82 -89.03 67 -82.43 50.08 C-77.98 39.28 -71.94 31.25 -63.66 23.2 C-62.94 22.49 -62.21 21.77 -61.47 21.03 C-45.24 6.54 -21.33 0.12 0 0 Z " fill="#2BA7FB" transform="translate(777.66015625,263.796875)"/>
<path d="M0 0 C0.83 -0 1.66 -0 2.51 -0 C4.26 0 6.01 0.01 7.76 0.03 C10.4 0.05 13.04 0.05 15.68 0.04 C35.33 0.07 55.74 2.07 70.62 16.18 C80.71 26.82 84.06 39.31 83.84 53.74 C83.28 68.7 78.78 78.95 67.97 89.29 C52.2 102.19 29 103.75 9.39 103.62 C7.34 103.61 5.3 103.62 3.25 103.64 C1.94 103.63 0.63 103.63 -0.72 103.63 C-2.48 103.63 -2.48 103.63 -4.27 103.62 C-7.67 103.35 -10.36 102.49 -13.56 101.36 C-13.68 88.64 -13.77 75.91 -13.82 63.19 C-13.85 57.28 -13.88 51.37 -13.94 45.46 C-13.99 39.76 -14.02 34.06 -14.04 28.36 C-14.05 26.18 -14.06 24.01 -14.09 21.83 C-14.13 18.79 -14.13 15.74 -14.13 12.7 C-14.15 11.79 -14.17 10.89 -14.18 9.96 C-14.17 7.65 -14.1 5.6 -13.56 3.36 C-9.52 -0.27 -5.2 -0.06 0 0 Z " fill="#001D37" transform="translate(508.5625,247.63671875)"/>
</svg>
